<svg width="1440" height="1024" viewBox="0 0 1440 1024" fill="none" xmlns="http://www.w3.org/2000/svg">
<g clip-path="url(#clip0_1_2)">
<rect width="1440" height="1024" fill="#F9FAFB"/>
<rect width="1440" height="96" fill="#111827"/>
<rect y="96" width="1440" height="928" fill="#374151"/>
<rect x="808" y="16" width="192" height="64" rx="16" fill="#9CA3AF"/>
<path d="M869.754 41.9375V59H866.836V41.9375H869.754ZM875.109 41.9375V44.2812H861.527V41.9375H875.109ZM879.07 48.7344V59H876.246V46.3203H878.941L879.07 48.7344ZM882.949 46.2383L882.926 48.8633C882.754 48.832 882.566 48.8086 882.363 48.793C882.168 48.7773 881.973 48.7695 881.777 48.7695C881.293 48.7695 880.867 48.8398 880.5 48.9805C880.133 49.1133 879.824 49.3086 879.574 49.5664C879.332 49.8164 879.145 50.1211 879.012 50.4805C878.879 50.8398 878.801 51.2422 878.777 51.6875L878.133 51.7344C878.133 50.9375 878.211 50.1992 878.367 49.5195C878.523 48.8398 878.758 48.2422 879.07 47.7266C879.391 47.2109 879.789 46.8086 880.266 46.5195C880.75 46.2305 881.309 46.0859 881.941 46.0859C882.113 46.0859 882.297 46.1016 882.492 46.1328C882.695 46.1641 882.848 46.1992 882.949 46.2383ZM891.445 56.457V50.4102C891.445 49.957 891.363 49.5664 891.199 49.2383C891.035 48.9102 890.785 48.6562 890.449 48.4766C890.121 48.2969 889.707 48.207 889.207 48.207C888.746 48.207 888.348 48.2852 888.012 48.4414C887.676 48.5977 887.414 48.8086 887.227 49.0742C887.039 49.3398 886.945 49.6406 886.945 49.9766H884.133C884.133 49.4766 884.254 48.9922 884.496 48.5234C884.738 48.0547 885.09 47.6367 885.551 47.2695C886.012 46.9023 886.562 46.6133 887.203 46.4023C887.844 46.1914 888.562 46.0859 889.359 46.0859C890.312 46.0859 891.156 46.2461 891.891 46.5664C892.633 46.8867 893.215 47.3711 893.637 48.0195C894.066 48.6602 894.281 49.4648 894.281 50.4336V56.0703C894.281 56.6484 894.32 57.168 894.398 57.6289C894.484 58.082 894.605 58.4766 894.762 58.8125V59H891.867C891.734 58.6953 891.629 58.3086 891.551 57.8398C891.48 57.3633 891.445 56.9023 891.445 56.457ZM891.855 51.2891L891.879 53.0352H889.852C889.328 53.0352 888.867 53.0859 888.469 53.1875C888.07 53.2812 887.738 53.4219 887.473 53.6094C887.207 53.7969 887.008 54.0234 886.875 54.2891C886.742 54.5547 886.676 54.8555 886.676 55.1914C886.676 55.5273 886.754 55.8359 886.91 56.1172C887.066 56.3906 887.293 56.6055 887.59 56.7617C887.895 56.918 888.262 56.9961 888.691 56.9961C889.27 56.9961 889.773 56.8789 890.203 56.6445C890.641 56.4023 890.984 56.1094 891.234 55.7656C891.484 55.4141 891.617 55.082 891.633 54.7695L892.547 56.0234C892.453 56.3438 892.293 56.6875 892.066 57.0547C891.84 57.4219 891.543 57.7734 891.176 58.1094C890.816 58.4375 890.383 58.707 889.875 58.918C889.375 59.1289 888.797 59.2344 888.141 59.2344C887.312 59.2344 886.574 59.0703 885.926 58.7422C885.277 58.4062 884.77 57.957 884.402 57.3945C884.035 56.8242 883.852 56.1797 883.852 55.4609C883.852 54.7891 883.977 54.1953 884.227 53.6797C884.484 53.1562 884.859 52.7188 885.352 52.3672C885.852 52.0156 886.461 51.75 887.18 51.5703C887.898 51.3828 888.719 51.2891 889.641 51.2891H891.855ZM900.035 49.0273V59H897.211V46.3203H899.871L900.035 49.0273ZM899.531 52.1914L898.617 52.1797C898.625 51.2812 898.75 50.457 898.992 49.707C899.242 48.957 899.586 48.3125 900.023 47.7734C900.469 47.2344 901 46.8203 901.617 46.5312C902.234 46.2344 902.922 46.0859 903.68 46.0859C904.289 46.0859 904.84 46.1719 905.332 46.3438C905.832 46.5078 906.258 46.7773 906.609 47.1523C906.969 47.5273 907.242 48.0156 907.43 48.6172C907.617 49.2109 907.711 49.9414 907.711 50.8086V59H904.875V50.7969C904.875 50.1875 904.785 49.707 904.605 49.3555C904.434 48.9961 904.18 48.7422 903.844 48.5938C903.516 48.4375 903.105 48.3594 902.613 48.3594C902.129 48.3594 901.695 48.4609 901.312 48.6641C900.93 48.8672 900.605 49.1445 900.34 49.4961C900.082 49.8477 899.883 50.2539 899.742 50.7148C899.602 51.1758 899.531 51.668 899.531 52.1914ZM917.707 55.5664C917.707 55.2852 917.637 55.0312 917.496 54.8047C917.355 54.5703 917.086 54.3594 916.688 54.1719C916.297 53.9844 915.719 53.8125 914.953 53.6562C914.281 53.5078 913.664 53.332 913.102 53.1289C912.547 52.918 912.07 52.6641 911.672 52.3672C911.273 52.0703 910.965 51.7188 910.746 51.3125C910.527 50.9062 910.418 50.4375 910.418 49.9062C910.418 49.3906 910.531 48.9023 910.758 48.4414C910.984 47.9805 911.309 47.5742 911.73 47.2227C912.152 46.8711 912.664 46.5938 913.266 46.3906C913.875 46.1875 914.555 46.0859 915.305 46.0859C916.367 46.0859 917.277 46.2656 918.035 46.625C918.801 46.9766 919.387 47.457 919.793 48.0664C920.199 48.668 920.402 49.3477 920.402 50.1055H917.578C917.578 49.7695 917.492 49.457 917.32 49.168C917.156 48.8711 916.906 48.6328 916.57 48.4531C916.234 48.2656 915.812 48.1719 915.305 48.1719C914.82 48.1719 914.418 48.25 914.098 48.4062C913.785 48.5547 913.551 48.75 913.395 48.9922C913.246 49.2344 913.172 49.5 913.172 49.7891C913.172 50 913.211 50.1914 913.289 50.3633C913.375 50.5273 913.516 50.6797 913.711 50.8203C913.906 50.9531 914.172 51.0781 914.508 51.1953C914.852 51.3125 915.281 51.4258 915.797 51.5352C916.766 51.7383 917.598 52 918.293 52.3203C918.996 52.6328 919.535 53.0391 919.91 53.5391C920.285 54.0312 920.473 54.6562 920.473 55.4141C920.473 55.9766 920.352 56.4922 920.109 56.9609C919.875 57.4219 919.531 57.8242 919.078 58.168C918.625 58.5039 918.082 58.7656 917.449 58.9531C916.824 59.1406 916.121 59.2344 915.34 59.2344C914.191 59.2344 913.219 59.0312 912.422 58.625C911.625 58.2109 911.02 57.6836 910.605 57.043C910.199 56.3945 909.996 55.7227 909.996 55.0273H912.727C912.758 55.5508 912.902 55.9688 913.16 56.2812C913.426 56.5859 913.754 56.8086 914.145 56.9492C914.543 57.082 914.953 57.1484 915.375 57.1484C915.883 57.1484 916.309 57.082 916.652 56.9492C916.996 56.8086 917.258 56.6211 917.438 56.3867C917.617 56.1445 917.707 55.8711 917.707 55.5664ZM930.094 56.457V50.4102C930.094 49.957 930.012 49.5664 929.848 49.2383C929.684 48.9102 929.434 48.6562 929.098 48.4766C928.77 48.2969 928.355 48.207 927.855 48.207C927.395 48.207 926.996 48.2852 926.66 48.4414C926.324 48.5977 926.062 48.8086 925.875 49.0742C925.688 49.3398 925.594 49.6406 925.594 49.9766H922.781C922.781 49.4766 922.902 48.9922 923.145 48.5234C923.387 48.0547 923.738 47.6367 924.199 47.2695C924.66 46.9023 925.211 46.6133 925.852 46.4023C926.492 46.1914 927.211 46.0859 928.008 46.0859C928.961 46.0859 929.805 46.2461 930.539 46.5664C931.281 46.8867 931.863 47.3711 932.285 48.0195C932.715 48.6602 932.93 49.4648 932.93 50.4336V56.0703C932.93 56.6484 932.969 57.168 933.047 57.6289C933.133 58.082 933.254 58.4766 933.41 58.8125V59H930.516C930.383 58.6953 930.277 58.3086 930.199 57.8398C930.129 57.3633 930.094 56.9023 930.094 56.457ZM930.504 51.2891L930.527 53.0352H928.5C927.977 53.0352 927.516 53.0859 927.117 53.1875C926.719 53.2812 926.387 53.4219 926.121 53.6094C925.855 53.7969 925.656 54.0234 925.523 54.2891C925.391 54.5547 925.324 54.8555 925.324 55.1914C925.324 55.5273 925.402 55.8359 925.559 56.1172C925.715 56.3906 925.941 56.6055 926.238 56.7617C926.543 56.918 926.91 56.9961 927.34 56.9961C927.918 56.9961 928.422 56.8789 928.852 56.6445C929.289 56.4023 929.633 56.1094 929.883 55.7656C930.133 55.4141 930.266 55.082 930.281 54.7695L931.195 56.0234C931.102 56.3438 930.941 56.6875 930.715 57.0547C930.488 57.4219 930.191 57.7734 929.824 58.1094C929.465 58.4375 929.031 58.707 928.523 58.918C928.023 59.1289 927.445 59.2344 926.789 59.2344C925.961 59.2344 925.223 59.0703 924.574 58.7422C923.926 58.4062 923.418 57.957 923.051 57.3945C922.684 56.8242 922.5 56.1797 922.5 55.4609C922.5 54.7891 922.625 54.1953 922.875 53.6797C923.133 53.1562 923.508 52.7188 924 52.3672C924.5 52.0156 925.109 51.75 925.828 51.5703C926.547 51.3828 927.367 51.2891 928.289 51.2891H930.504ZM941.062 56.9844C941.523 56.9844 941.938 56.8945 942.305 56.7148C942.68 56.5273 942.98 56.2695 943.207 55.9414C943.441 55.6133 943.57 55.2344 943.594 54.8047H946.254C946.238 55.625 945.996 56.3711 945.527 57.043C945.059 57.7148 944.438 58.25 943.664 58.6484C942.891 59.0391 942.035 59.2344 941.098 59.2344C940.129 59.2344 939.285 59.0703 938.566 58.7422C937.848 58.4062 937.25 57.9453 936.773 57.3594C936.297 56.7734 935.938 56.0977 935.695 55.332C935.461 54.5664 935.344 53.7461 935.344 52.8711V52.4609C935.344 51.5859 935.461 50.7656 935.695 50C935.938 49.2266 936.297 48.5469 936.773 47.9609C937.25 47.375 937.848 46.918 938.566 46.5898C939.285 46.2539 940.125 46.0859 941.086 46.0859C942.102 46.0859 942.992 46.2891 943.758 46.6953C944.523 47.0938 945.125 47.6523 945.562 48.3711C946.008 49.082 946.238 49.9102 946.254 50.8555H943.594C943.57 50.3867 943.453 49.9648 943.242 49.5898C943.039 49.207 942.75 48.9023 942.375 48.6758C942.008 48.4492 941.566 48.3359 941.051 48.3359C940.48 48.3359 940.008 48.4531 939.633 48.6875C939.258 48.9141 938.965 49.2266 938.754 49.625C938.543 50.0156 938.391 50.457 938.297 50.9492C938.211 51.4336 938.168 51.9375 938.168 52.4609V52.8711C938.168 53.3945 938.211 53.9023 938.297 54.3945C938.383 54.8867 938.531 55.3281 938.742 55.7188C938.961 56.1016 939.258 56.4102 939.633 56.6445C940.008 56.8711 940.484 56.9844 941.062 56.9844ZM954.234 46.3203V48.3828H947.086V46.3203H954.234ZM949.148 43.2148H951.973V55.4961C951.973 55.8867 952.027 56.1875 952.137 56.3984C952.254 56.6016 952.414 56.7383 952.617 56.8086C952.82 56.8789 953.059 56.9141 953.332 56.9141C953.527 56.9141 953.715 56.9023 953.895 56.8789C954.074 56.8555 954.219 56.832 954.328 56.8086L954.34 58.9648C954.105 59.0352 953.832 59.0977 953.52 59.1523C953.215 59.207 952.863 59.2344 952.465 59.2344C951.816 59.2344 951.242 59.1211 950.742 58.8945C950.242 58.6602 949.852 58.2812 949.57 57.7578C949.289 57.2344 949.148 56.5391 949.148 55.6719V43.2148ZM959.438 46.3203V59H956.602V46.3203H959.438ZM956.414 42.9922C956.414 42.5625 956.555 42.207 956.836 41.9258C957.125 41.6367 957.523 41.4922 958.031 41.4922C958.531 41.4922 958.926 41.6367 959.215 41.9258C959.504 42.207 959.648 42.5625 959.648 42.9922C959.648 43.4141 959.504 43.7656 959.215 44.0469C958.926 44.3281 958.531 44.4688 958.031 44.4688C957.523 44.4688 957.125 44.3281 956.836 44.0469C956.555 43.7656 956.414 43.4141 956.414 42.9922ZM961.992 52.8008V52.5312C961.992 51.6172 962.125 50.7695 962.391 49.9883C962.656 49.1992 963.039 48.5156 963.539 47.9375C964.047 47.3516 964.664 46.8984 965.391 46.5781C966.125 46.25 966.953 46.0859 967.875 46.0859C968.805 46.0859 969.633 46.25 970.359 46.5781C971.094 46.8984 971.715 47.3516 972.223 47.9375C972.73 48.5156 973.117 49.1992 973.383 49.9883C973.648 50.7695 973.781 51.6172 973.781 52.5312V52.8008C973.781 53.7148 973.648 54.5625 973.383 55.3438C973.117 56.125 972.73 56.8086 972.223 57.3945C971.715 57.9727 971.098 58.4258 970.371 58.7539C969.645 59.0742 968.82 59.2344 967.898 59.2344C966.969 59.2344 966.137 59.0742 965.402 58.7539C964.676 58.4258 964.059 57.9727 963.551 57.3945C963.043 56.8086 962.656 56.125 962.391 55.3438C962.125 54.5625 961.992 53.7148 961.992 52.8008ZM964.816 52.5312V52.8008C964.816 53.3711 964.875 53.9102 964.992 54.418C965.109 54.9258 965.293 55.3711 965.543 55.7539C965.793 56.1367 966.113 56.4375 966.504 56.6562C966.895 56.875 967.359 56.9844 967.898 56.9844C968.422 56.9844 968.875 56.875 969.258 56.6562C969.648 56.4375 969.969 56.1367 970.219 55.7539C970.469 55.3711 970.652 54.9258 970.77 54.418C970.895 53.9102 970.957 53.3711 970.957 52.8008V52.5312C970.957 51.9688 970.895 51.4375 970.77 50.9375C970.652 50.4297 970.465 49.9805 970.207 49.5898C969.957 49.1992 969.637 48.8945 969.246 48.6758C968.863 48.4492 968.406 48.3359 967.875 48.3359C967.344 48.3359 966.883 48.4492 966.492 48.6758C966.109 48.8945 965.793 49.1992 965.543 49.5898C965.293 49.9805 965.109 50.4297 964.992 50.9375C964.875 51.4375 964.816 51.9688 964.816 52.5312ZM978.949 49.0273V59H976.125V46.3203H978.785L978.949 49.0273ZM978.445 52.1914L977.531 52.1797C977.539 51.2812 977.664 50.457 977.906 49.707C978.156 48.957 978.5 48.3125 978.938 47.7734C979.383 47.2344 979.914 46.8203 980.531 46.5312C981.148 46.2344 981.836 46.0859 982.594 46.0859C983.203 46.0859 983.754 46.1719 984.246 46.3438C984.746 46.5078 985.172 46.7773 985.523 47.1523C985.883 47.5273 986.156 48.0156 986.344 48.6172C986.531 49.2109 986.625 49.9414 986.625 50.8086V59H983.789V50.7969C983.789 50.1875 983.699 49.707 983.52 49.3555C983.348 48.9961 983.094 48.7422 982.758 48.5938C982.43 48.4375 982.02 48.3594 981.527 48.3594C981.043 48.3594 980.609 48.4609 980.227 48.6641C979.844 48.8672 979.52 49.1445 979.254 49.4961C978.996 49.8477 978.797 50.2539 978.656 50.7148C978.516 51.1758 978.445 51.668 978.445 52.1914Z" fill="#030712"/>
<path d="M842.5 35.629L853.621 46.75H823V43.75H846.379L840.379 37.75L842.5 35.629ZM853 51.25V54.25H829.621L835.621 60.25L833.5 62.371L822.379 51.25H853Z" fill="#030712"/>
<rect x="580" y="16" width="192" height="64" rx="16" fill="#9CA3AF"/>
<path d="M652.215 52.6367H647.773V50.3047H652.215C652.988 50.3047 653.613 50.1797 654.09 49.9297C654.566 49.6797 654.914 49.3359 655.133 48.8984C655.359 48.4531 655.473 47.9453 655.473 47.375C655.473 46.8359 655.359 46.332 655.133 45.8633C654.914 45.3867 654.566 45.0039 654.09 44.7148C653.613 44.4258 652.988 44.2812 652.215 44.2812H648.676V59H645.734V41.9375H652.215C653.535 41.9375 654.656 42.1719 655.578 42.6406C656.508 43.1016 657.215 43.7422 657.699 44.5625C658.184 45.375 658.426 46.3047 658.426 47.3516C658.426 48.4531 658.184 49.3984 657.699 50.1875C657.215 50.9766 656.508 51.582 655.578 52.0039C654.656 52.4258 653.535 52.6367 652.215 52.6367ZM660.078 52.8008V52.5312C660.078 51.6172 660.211 50.7695 660.477 49.9883C660.742 49.1992 661.125 48.5156 661.625 47.9375C662.133 47.3516 662.75 46.8984 663.477 46.5781C664.211 46.25 665.039 46.0859 665.961 46.0859C666.891 46.0859 667.719 46.25 668.445 46.5781C669.18 46.8984 669.801 47.3516 670.309 47.9375C670.816 48.5156 671.203 49.1992 671.469 49.9883C671.734 50.7695 671.867 51.6172 671.867 52.5312V52.8008C671.867 53.7148 671.734 54.5625 671.469 55.3438C671.203 56.125 670.816 56.8086 670.309 57.3945C669.801 57.9727 669.184 58.4258 668.457 58.7539C667.73 59.0742 666.906 59.2344 665.984 59.2344C665.055 59.2344 664.223 59.0742 663.488 58.7539C662.762 58.4258 662.145 57.9727 661.637 57.3945C661.129 56.8086 660.742 56.125 660.477 55.3438C660.211 54.5625 660.078 53.7148 660.078 52.8008ZM662.902 52.5312V52.8008C662.902 53.3711 662.961 53.9102 663.078 54.418C663.195 54.9258 663.379 55.3711 663.629 55.7539C663.879 56.1367 664.199 56.4375 664.59 56.6562C664.98 56.875 665.445 56.9844 665.984 56.9844C666.508 56.9844 666.961 56.875 667.344 56.6562C667.734 56.4375 668.055 56.1367 668.305 55.7539C668.555 55.3711 668.738 54.9258 668.855 54.418C668.98 53.9102 669.043 53.3711 669.043 52.8008V52.5312C669.043 51.9688 668.98 51.4375 668.855 50.9375C668.738 50.4297 668.551 49.9805 668.293 49.5898C668.043 49.1992 667.723 48.8945 667.332 48.6758C666.949 48.4492 666.492 48.3359 665.961 48.3359C665.43 48.3359 664.969 48.4492 664.578 48.6758C664.195 48.8945 663.879 49.1992 663.629 49.5898C663.379 49.9805 663.195 50.4297 663.078 50.9375C662.961 51.4375 662.902 51.9688 662.902 52.5312ZM677.07 48.7344V59H674.246V46.3203H676.941L677.07 48.7344ZM680.949 46.2383L680.926 48.8633C680.754 48.832 680.566 48.8086 680.363 48.793C680.168 48.7773 679.973 48.7695 679.777 48.7695C679.293 48.7695 678.867 48.8398 678.5 48.9805C678.133 49.1133 677.824 49.3086 677.574 49.5664C677.332 49.8164 677.145 50.1211 677.012 50.4805C676.879 50.8398 676.801 51.2422 676.777 51.6875L676.133 51.7344C676.133 50.9375 676.211 50.1992 676.367 49.5195C676.523 48.8398 676.758 48.2422 677.07 47.7266C677.391 47.2109 677.789 46.8086 678.266 46.5195C678.75 46.2305 679.309 46.0859 679.941 46.0859C680.113 46.0859 680.297 46.1016 680.492 46.1328C680.695 46.1641 680.848 46.1992 680.949 46.2383ZM689.117 46.3203V48.3828H681.969V46.3203H689.117ZM684.031 43.2148H686.855V55.4961C686.855 55.8867 686.91 56.1875 687.02 56.3984C687.137 56.6016 687.297 56.7383 687.5 56.8086C687.703 56.8789 687.941 56.9141 688.215 56.9141C688.41 56.9141 688.598 56.9023 688.777 56.8789C688.957 56.8555 689.102 56.832 689.211 56.8086L689.223 58.9648C688.988 59.0352 688.715 59.0977 688.402 59.1523C688.098 59.207 687.746 59.2344 687.348 59.2344C686.699 59.2344 686.125 59.1211 685.625 58.8945C685.125 58.6602 684.734 58.2812 684.453 57.7578C684.172 57.2344 684.031 56.5391 684.031 55.6719V43.2148ZM695.117 59H692.293V45.1016C692.293 44.1562 692.469 43.3633 692.82 42.7227C693.18 42.0742 693.691 41.5859 694.355 41.2578C695.02 40.9219 695.805 40.7539 696.711 40.7539C696.992 40.7539 697.27 40.7734 697.543 40.8125C697.816 40.8438 698.082 40.8945 698.34 40.9648L698.27 43.1445C698.113 43.1055 697.941 43.0781 697.754 43.0625C697.574 43.0469 697.379 43.0391 697.168 43.0391C696.738 43.0391 696.367 43.1211 696.055 43.2852C695.75 43.4414 695.516 43.6719 695.352 43.9766C695.195 44.2812 695.117 44.6562 695.117 45.1016V59ZM697.73 46.3203V48.3828H690.348V46.3203H697.73ZM699.242 52.8008V52.5312C699.242 51.6172 699.375 50.7695 699.641 49.9883C699.906 49.1992 700.289 48.5156 700.789 47.9375C701.297 47.3516 701.914 46.8984 702.641 46.5781C703.375 46.25 704.203 46.0859 705.125 46.0859C706.055 46.0859 706.883 46.25 707.609 46.5781C708.344 46.8984 708.965 47.3516 709.473 47.9375C709.98 48.5156 710.367 49.1992 710.633 49.9883C710.898 50.7695 711.031 51.6172 711.031 52.5312V52.8008C711.031 53.7148 710.898 54.5625 710.633 55.3438C710.367 56.125 709.98 56.8086 709.473 57.3945C708.965 57.9727 708.348 58.4258 707.621 58.7539C706.895 59.0742 706.07 59.2344 705.148 59.2344C704.219 59.2344 703.387 59.0742 702.652 58.7539C701.926 58.4258 701.309 57.9727 700.801 57.3945C700.293 56.8086 699.906 56.125 699.641 55.3438C699.375 54.5625 699.242 53.7148 699.242 52.8008ZM702.066 52.5312V52.8008C702.066 53.3711 702.125 53.9102 702.242 54.418C702.359 54.9258 702.543 55.3711 702.793 55.7539C703.043 56.1367 703.363 56.4375 703.754 56.6562C704.145 56.875 704.609 56.9844 705.148 56.9844C705.672 56.9844 706.125 56.875 706.508 56.6562C706.898 56.4375 707.219 56.1367 707.469 55.7539C707.719 55.3711 707.902 54.9258 708.02 54.418C708.145 53.9102 708.207 53.3711 708.207 52.8008V52.5312C708.207 51.9688 708.145 51.4375 708.02 50.9375C707.902 50.4297 707.715 49.9805 707.457 49.5898C707.207 49.1992 706.887 48.8945 706.496 48.6758C706.113 48.4492 705.656 48.3359 705.125 48.3359C704.594 48.3359 704.133 48.4492 703.742 48.6758C703.359 48.8945 703.043 49.1992 702.793 49.5898C702.543 49.9805 702.359 50.4297 702.242 50.9375C702.125 51.4375 702.066 51.9688 702.066 52.5312ZM716.422 41V59H713.586V41H716.422ZM722.539 46.3203V59H719.703V46.3203H722.539ZM719.516 42.9922C719.516 42.5625 719.656 42.207 719.938 41.9258C720.227 41.6367 720.625 41.4922 721.133 41.4922C721.633 41.4922 722.027 41.6367 722.316 41.9258C722.605 42.207 722.75 42.5625 722.75 42.9922C722.75 43.4141 722.605 43.7656 722.316 44.0469C722.027 44.3281 721.633 44.4688 721.133 44.4688C720.625 44.4688 720.227 44.3281 719.938 44.0469C719.656 43.7656 719.516 43.4141 719.516 42.9922ZM725.094 52.8008V52.5312C725.094 51.6172 725.227 50.7695 725.492 49.9883C725.758 49.1992 726.141 48.5156 726.641 47.9375C727.148 47.3516 727.766 46.8984 728.492 46.5781C729.227 46.25 730.055 46.0859 730.977 46.0859C731.906 46.0859 732.734 46.25 733.461 46.5781C734.195 46.8984 734.816 47.3516 735.324 47.9375C735.832 48.5156 736.219 49.1992 736.484 49.9883C736.75 50.7695 736.883 51.6172 736.883 52.5312V52.8008C736.883 53.7148 736.75 54.5625 736.484 55.3438C736.219 56.125 735.832 56.8086 735.324 57.3945C734.816 57.9727 734.199 58.4258 733.473 58.7539C732.746 59.0742 731.922 59.2344 731 59.2344C730.07 59.2344 729.238 59.0742 728.504 58.7539C727.777 58.4258 727.16 57.9727 726.652 57.3945C726.145 56.8086 725.758 56.125 725.492 55.3438C725.227 54.5625 725.094 53.7148 725.094 52.8008ZM727.918 52.5312V52.8008C727.918 53.3711 727.977 53.9102 728.094 54.418C728.211 54.9258 728.395 55.3711 728.645 55.7539C728.895 56.1367 729.215 56.4375 729.605 56.6562C729.996 56.875 730.461 56.9844 731 56.9844C731.523 56.9844 731.977 56.875 732.359 56.6562C732.75 56.4375 733.07 56.1367 733.32 55.7539C733.57 55.3711 733.754 54.9258 733.871 54.418C733.996 53.9102 734.059 53.3711 734.059 52.8008V52.5312C734.059 51.9688 733.996 51.4375 733.871 50.9375C733.754 50.4297 733.566 49.9805 733.309 49.5898C733.059 49.1992 732.738 48.8945 732.348 48.6758C731.965 48.4492 731.508 48.3359 730.977 48.3359C730.445 48.3359 729.984 48.4492 729.594 48.6758C729.211 48.8945 728.895 49.1992 728.645 49.5898C728.395 49.9805 728.211 50.4297 728.094 50.9375C727.977 51.4375 727.918 51.9688 727.918 52.5312Z" fill="#030712"/>
<path d="M611.5 44.5V36.25L619.75 44.5M601 34C599.335 34 598 35.335 598 37V61C598 61.7956 598.316 62.5587 598.879 63.1213C599.441 63.6839 600.204 64 601 64H619C619.796 64 620.559 63.6839 621.121 63.1213C621.684 62.5587 622 61.7956 622 61V43L613 34H601Z" fill="#030712"/>
<rect x="352" y="16" width="192" height="64" rx="16" fill="#9CA3AF"/>
<path d="M426.711 54.6055C426.711 54.2539 426.656 53.9414 426.547 53.668C426.445 53.3945 426.262 53.1445 425.996 52.918C425.73 52.6914 425.355 52.4727 424.871 52.2617C424.395 52.043 423.785 51.8203 423.043 51.5938C422.23 51.3438 421.48 51.0664 420.793 50.7617C420.113 50.4492 419.52 50.0898 419.012 49.6836C418.504 49.2695 418.109 48.7969 417.828 48.2656C417.547 47.7266 417.406 47.1055 417.406 46.4023C417.406 45.707 417.551 45.0742 417.84 44.5039C418.137 43.9336 418.555 43.4414 419.094 43.0273C419.641 42.6055 420.285 42.2812 421.027 42.0547C421.77 41.8203 422.59 41.7031 423.488 41.7031C424.754 41.7031 425.844 41.9375 426.758 42.4062C427.68 42.875 428.387 43.5039 428.879 44.293C429.379 45.082 429.629 45.9531 429.629 46.9062H426.711C426.711 46.3438 426.59 45.8477 426.348 45.418C426.113 44.9805 425.754 44.6367 425.27 44.3867C424.793 44.1367 424.188 44.0117 423.453 44.0117C422.758 44.0117 422.18 44.1172 421.719 44.3281C421.258 44.5391 420.914 44.8242 420.688 45.1836C420.461 45.543 420.348 45.9492 420.348 46.4023C420.348 46.7227 420.422 47.0156 420.57 47.2812C420.719 47.5391 420.945 47.7812 421.25 48.0078C421.555 48.2266 421.938 48.4336 422.398 48.6289C422.859 48.8242 423.402 49.0117 424.027 49.1914C424.973 49.4727 425.797 49.7852 426.5 50.1289C427.203 50.4648 427.789 50.8477 428.258 51.2773C428.727 51.707 429.078 52.1953 429.312 52.7422C429.547 53.2812 429.664 53.8945 429.664 54.582C429.664 55.3008 429.52 55.9492 429.23 56.5273C428.941 57.0977 428.527 57.5859 427.988 57.9922C427.457 58.3906 426.816 58.6992 426.066 58.918C425.324 59.1289 424.496 59.2344 423.582 59.2344C422.762 59.2344 421.953 59.125 421.156 58.9062C420.367 58.6875 419.648 58.3555 419 57.9102C418.352 57.457 417.836 56.8945 417.453 56.2227C417.07 55.543 416.879 54.75 416.879 53.8438H419.82C419.82 54.3984 419.914 54.8711 420.102 55.2617C420.297 55.6523 420.566 55.9727 420.91 56.2227C421.254 56.4648 421.652 56.6445 422.105 56.7617C422.566 56.8789 423.059 56.9375 423.582 56.9375C424.27 56.9375 424.844 56.8398 425.305 56.6445C425.773 56.4492 426.125 56.1758 426.359 55.8242C426.594 55.4727 426.711 55.0664 426.711 54.6055ZM437.797 46.3203V48.3828H430.648V46.3203H437.797ZM432.711 43.2148H435.535V55.4961C435.535 55.8867 435.59 56.1875 435.699 56.3984C435.816 56.6016 435.977 56.7383 436.18 56.8086C436.383 56.8789 436.621 56.9141 436.895 56.9141C437.09 56.9141 437.277 56.9023 437.457 56.8789C437.637 56.8555 437.781 56.832 437.891 56.8086L437.902 58.9648C437.668 59.0352 437.395 59.0977 437.082 59.1523C436.777 59.207 436.426 59.2344 436.027 59.2344C435.379 59.2344 434.805 59.1211 434.305 58.8945C433.805 58.6602 433.414 58.2812 433.133 57.7578C432.852 57.2344 432.711 56.5391 432.711 55.6719V43.2148ZM447.125 56.457V50.4102C447.125 49.957 447.043 49.5664 446.879 49.2383C446.715 48.9102 446.465 48.6562 446.129 48.4766C445.801 48.2969 445.387 48.207 444.887 48.207C444.426 48.207 444.027 48.2852 443.691 48.4414C443.355 48.5977 443.094 48.8086 442.906 49.0742C442.719 49.3398 442.625 49.6406 442.625 49.9766H439.812C439.812 49.4766 439.934 48.9922 440.176 48.5234C440.418 48.0547 440.77 47.6367 441.23 47.2695C441.691 46.9023 442.242 46.6133 442.883 46.4023C443.523 46.1914 444.242 46.0859 445.039 46.0859C445.992 46.0859 446.836 46.2461 447.57 46.5664C448.312 46.8867 448.895 47.3711 449.316 48.0195C449.746 48.6602 449.961 49.4648 449.961 50.4336V56.0703C449.961 56.6484 450 57.168 450.078 57.6289C450.164 58.082 450.285 58.4766 450.441 58.8125V59H447.547C447.414 58.6953 447.309 58.3086 447.23 57.8398C447.16 57.3633 447.125 56.9023 447.125 56.457ZM447.535 51.2891L447.559 53.0352H445.531C445.008 53.0352 444.547 53.0859 444.148 53.1875C443.75 53.2812 443.418 53.4219 443.152 53.6094C442.887 53.7969 442.688 54.0234 442.555 54.2891C442.422 54.5547 442.355 54.8555 442.355 55.1914C442.355 55.5273 442.434 55.8359 442.59 56.1172C442.746 56.3906 442.973 56.6055 443.27 56.7617C443.574 56.918 443.941 56.9961 444.371 56.9961C444.949 56.9961 445.453 56.8789 445.883 56.6445C446.32 56.4023 446.664 56.1094 446.914 55.7656C447.164 55.4141 447.297 55.082 447.312 54.7695L448.227 56.0234C448.133 56.3438 447.973 56.6875 447.746 57.0547C447.52 57.4219 447.223 57.7734 446.855 58.1094C446.496 58.4375 446.062 58.707 445.555 58.918C445.055 59.1289 444.477 59.2344 443.82 59.2344C442.992 59.2344 442.254 59.0703 441.605 58.7422C440.957 58.4062 440.449 57.957 440.082 57.3945C439.715 56.8242 439.531 56.1797 439.531 55.4609C439.531 54.7891 439.656 54.1953 439.906 53.6797C440.164 53.1562 440.539 52.7188 441.031 52.3672C441.531 52.0156 442.141 51.75 442.859 51.5703C443.578 51.3828 444.398 51.2891 445.32 51.2891H447.535ZM458.727 46.3203V48.3828H451.578V46.3203H458.727ZM453.641 43.2148H456.465V55.4961C456.465 55.8867 456.52 56.1875 456.629 56.3984C456.746 56.6016 456.906 56.7383 457.109 56.8086C457.312 56.8789 457.551 56.9141 457.824 56.9141C458.02 56.9141 458.207 56.9023 458.387 56.8789C458.566 56.8555 458.711 56.832 458.82 56.8086L458.832 58.9648C458.598 59.0352 458.324 59.0977 458.012 59.1523C457.707 59.207 457.355 59.2344 456.957 59.2344C456.309 59.2344 455.734 59.1211 455.234 58.8945C454.734 58.6602 454.344 58.2812 454.062 57.7578C453.781 57.2344 453.641 56.5391 453.641 55.6719V43.2148ZM463.93 46.3203V59H461.094V46.3203H463.93ZM460.906 42.9922C460.906 42.5625 461.047 42.207 461.328 41.9258C461.617 41.6367 462.016 41.4922 462.523 41.4922C463.023 41.4922 463.418 41.6367 463.707 41.9258C463.996 42.207 464.141 42.5625 464.141 42.9922C464.141 43.4141 463.996 43.7656 463.707 44.0469C463.418 44.3281 463.023 44.4688 462.523 44.4688C462.016 44.4688 461.617 44.3281 461.328 44.0469C461.047 43.7656 460.906 43.4141 460.906 42.9922ZM474.137 55.5664C474.137 55.2852 474.066 55.0312 473.926 54.8047C473.785 54.5703 473.516 54.3594 473.117 54.1719C472.727 53.9844 472.148 53.8125 471.383 53.6562C470.711 53.5078 470.094 53.332 469.531 53.1289C468.977 52.918 468.5 52.6641 468.102 52.3672C467.703 52.0703 467.395 51.7188 467.176 51.3125C466.957 50.9062 466.848 50.4375 466.848 49.9062C466.848 49.3906 466.961 48.9023 467.188 48.4414C467.414 47.9805 467.738 47.5742 468.16 47.2227C468.582 46.8711 469.094 46.5938 469.695 46.3906C470.305 46.1875 470.984 46.0859 471.734 46.0859C472.797 46.0859 473.707 46.2656 474.465 46.625C475.23 46.9766 475.816 47.457 476.223 48.0664C476.629 48.668 476.832 49.3477 476.832 50.1055H474.008C474.008 49.7695 473.922 49.457 473.75 49.168C473.586 48.8711 473.336 48.6328 473 48.4531C472.664 48.2656 472.242 48.1719 471.734 48.1719C471.25 48.1719 470.848 48.25 470.527 48.4062C470.215 48.5547 469.98 48.75 469.824 48.9922C469.676 49.2344 469.602 49.5 469.602 49.7891C469.602 50 469.641 50.1914 469.719 50.3633C469.805 50.5273 469.945 50.6797 470.141 50.8203C470.336 50.9531 470.602 51.0781 470.938 51.1953C471.281 51.3125 471.711 51.4258 472.227 51.5352C473.195 51.7383 474.027 52 474.723 52.3203C475.426 52.6328 475.965 53.0391 476.34 53.5391C476.715 54.0312 476.902 54.6562 476.902 55.4141C476.902 55.9766 476.781 56.4922 476.539 56.9609C476.305 57.4219 475.961 57.8242 475.508 58.168C475.055 58.5039 474.512 58.7656 473.879 58.9531C473.254 59.1406 472.551 59.2344 471.77 59.2344C470.621 59.2344 469.648 59.0312 468.852 58.625C468.055 58.2109 467.449 57.6836 467.035 57.043C466.629 56.3945 466.426 55.7227 466.426 55.0273H469.156C469.188 55.5508 469.332 55.9688 469.59 56.2812C469.855 56.5859 470.184 56.8086 470.574 56.9492C470.973 57.082 471.383 57.1484 471.805 57.1484C472.312 57.1484 472.738 57.082 473.082 56.9492C473.426 56.8086 473.688 56.6211 473.867 56.3867C474.047 56.1445 474.137 55.8711 474.137 55.5664ZM485.188 46.3203V48.3828H478.039V46.3203H485.188ZM480.102 43.2148H482.926V55.4961C482.926 55.8867 482.98 56.1875 483.09 56.3984C483.207 56.6016 483.367 56.7383 483.57 56.8086C483.773 56.8789 484.012 56.9141 484.285 56.9141C484.48 56.9141 484.668 56.9023 484.848 56.8789C485.027 56.8555 485.172 56.832 485.281 56.8086L485.293 58.9648C485.059 59.0352 484.785 59.0977 484.473 59.1523C484.168 59.207 483.816 59.2344 483.418 59.2344C482.77 59.2344 482.195 59.1211 481.695 58.8945C481.195 58.6602 480.805 58.2812 480.523 57.7578C480.242 57.2344 480.102 56.5391 480.102 55.6719V43.2148ZM490.391 46.3203V59H487.555V46.3203H490.391ZM487.367 42.9922C487.367 42.5625 487.508 42.207 487.789 41.9258C488.078 41.6367 488.477 41.4922 488.984 41.4922C489.484 41.4922 489.879 41.6367 490.168 41.9258C490.457 42.207 490.602 42.5625 490.602 42.9922C490.602 43.4141 490.457 43.7656 490.168 44.0469C489.879 44.3281 489.484 44.4688 488.984 44.4688C488.477 44.4688 488.078 44.3281 487.789 44.0469C487.508 43.7656 487.367 43.4141 487.367 42.9922ZM498.664 56.9844C499.125 56.9844 499.539 56.8945 499.906 56.7148C500.281 56.5273 500.582 56.2695 500.809 55.9414C501.043 55.6133 501.172 55.2344 501.195 54.8047H503.855C503.84 55.625 503.598 56.3711 503.129 57.043C502.66 57.7148 502.039 58.25 501.266 58.6484C500.492 59.0391 499.637 59.2344 498.699 59.2344C497.73 59.2344 496.887 59.0703 496.168 58.7422C495.449 58.4062 494.852 57.9453 494.375 57.3594C493.898 56.7734 493.539 56.0977 493.297 55.332C493.062 54.5664 492.945 53.7461 492.945 52.8711V52.4609C492.945 51.5859 493.062 50.7656 493.297 50C493.539 49.2266 493.898 48.5469 494.375 47.9609C494.852 47.375 495.449 46.918 496.168 46.5898C496.887 46.2539 497.727 46.0859 498.688 46.0859C499.703 46.0859 500.594 46.2891 501.359 46.6953C502.125 47.0938 502.727 47.6523 503.164 48.3711C503.609 49.082 503.84 49.9102 503.855 50.8555H501.195C501.172 50.3867 501.055 49.9648 500.844 49.5898C500.641 49.207 500.352 48.9023 499.977 48.6758C499.609 48.4492 499.168 48.3359 498.652 48.3359C498.082 48.3359 497.609 48.4531 497.234 48.6875C496.859 48.9141 496.566 49.2266 496.355 49.625C496.145 50.0156 495.992 50.457 495.898 50.9492C495.812 51.4336 495.77 51.9375 495.77 52.4609V52.8711C495.77 53.3945 495.812 53.9023 495.898 54.3945C495.984 54.8867 496.133 55.3281 496.344 55.7188C496.562 56.1016 496.859 56.4102 497.234 56.6445C497.609 56.8711 498.086 56.9844 498.664 56.9844ZM513.137 55.5664C513.137 55.2852 513.066 55.0312 512.926 54.8047C512.785 54.5703 512.516 54.3594 512.117 54.1719C511.727 53.9844 511.148 53.8125 510.383 53.6562C509.711 53.5078 509.094 53.332 508.531 53.1289C507.977 52.918 507.5 52.6641 507.102 52.3672C506.703 52.0703 506.395 51.7188 506.176 51.3125C505.957 50.9062 505.848 50.4375 505.848 49.9062C505.848 49.3906 505.961 48.9023 506.188 48.4414C506.414 47.9805 506.738 47.5742 507.16 47.2227C507.582 46.8711 508.094 46.5938 508.695 46.3906C509.305 46.1875 509.984 46.0859 510.734 46.0859C511.797 46.0859 512.707 46.2656 513.465 46.625C514.23 46.9766 514.816 47.457 515.223 48.0664C515.629 48.668 515.832 49.3477 515.832 50.1055H513.008C513.008 49.7695 512.922 49.457 512.75 49.168C512.586 48.8711 512.336 48.6328 512 48.4531C511.664 48.2656 511.242 48.1719 510.734 48.1719C510.25 48.1719 509.848 48.25 509.527 48.4062C509.215 48.5547 508.98 48.75 508.824 48.9922C508.676 49.2344 508.602 49.5 508.602 49.7891C508.602 50 508.641 50.1914 508.719 50.3633C508.805 50.5273 508.945 50.6797 509.141 50.8203C509.336 50.9531 509.602 51.0781 509.938 51.1953C510.281 51.3125 510.711 51.4258 511.227 51.5352C512.195 51.7383 513.027 52 513.723 52.3203C514.426 52.6328 514.965 53.0391 515.34 53.5391C515.715 54.0312 515.902 54.6562 515.902 55.4141C515.902 55.9766 515.781 56.4922 515.539 56.9609C515.305 57.4219 514.961 57.8242 514.508 58.168C514.055 58.5039 513.512 58.7656 512.879 58.9531C512.254 59.1406 511.551 59.2344 510.77 59.2344C509.621 59.2344 508.648 59.0312 507.852 58.625C507.055 58.2109 506.449 57.6836 506.035 57.043C505.629 56.3945 505.426 55.7227 505.426 55.0273H508.156C508.188 55.5508 508.332 55.9688 508.59 56.2812C508.855 56.5859 509.184 56.8086 509.574 56.9492C509.973 57.082 510.383 57.1484 510.805 57.1484C511.312 57.1484 511.738 57.082 512.082 56.9492C512.426 56.8086 512.688 56.6211 512.867 56.3867C513.047 56.1445 513.137 55.8711 513.137 55.5664Z" fill="#030712"/>
<path d="M385.75 46.495H395.755C396.085 46.495 396.402 46.3638 396.635 46.1303C396.869 45.8969 397 45.5802 397 45.25C397 42.2663 395.815 39.4048 393.705 37.295C391.595 35.1853 388.734 34 385.75 34C385.42 34 385.103 34.1312 384.87 34.3647C384.636 34.5981 384.505 34.9148 384.505 35.245V45.25C384.505 45.5802 384.636 45.8969 384.87 46.1303C385.103 46.3638 385.42 46.495 385.75 46.495ZM386.995 36.595C388.865 36.8641 390.597 37.7314 391.933 39.0672C393.269 40.4029 394.136 42.1352 394.405 44.005H386.995V36.595Z" fill="#030712"/>
<path d="M395.62 49H383.395C383.216 49 383.038 48.9647 382.873 48.8961C382.707 48.8275 382.557 48.727 382.43 48.6002C382.303 48.4734 382.203 48.323 382.134 48.1574C382.065 47.9918 382.03 47.8143 382.03 47.635V35.38C382.031 35.1854 381.991 34.9928 381.913 34.8148C381.834 34.6368 381.719 34.4774 381.574 34.3471C381.43 34.2168 381.259 34.1185 381.074 34.0587C380.889 33.9988 380.693 33.9788 380.5 34C377.684 34.299 375.01 35.389 372.788 37.1438C370.566 38.8987 368.885 41.2468 367.942 43.9166C366.998 46.5864 366.829 49.4688 367.455 52.2305C368.08 54.9922 369.475 57.5204 371.477 59.5227C373.48 61.5251 376.008 62.9197 378.769 63.5454C381.531 64.1711 384.414 64.0023 387.083 63.0584C389.753 62.1146 392.101 60.4344 393.856 58.212C395.611 55.9896 396.701 53.3159 397 50.5C397.017 50.3089 396.993 50.1165 396.932 49.935C396.87 49.7534 396.771 49.5868 396.641 49.4457C396.511 49.3045 396.353 49.192 396.177 49.1153C396.002 49.0385 395.812 48.9993 395.62 49Z" fill="#030712"/>
<rect x="124" y="16" width="192" height="64" rx="16" fill="#9CA3AF"/>
<path d="M194.691 59H191.047L191.07 56.668H194.691C195.746 56.668 196.629 56.4375 197.34 55.9766C198.059 55.5156 198.598 54.8555 198.957 53.9961C199.324 53.1367 199.508 52.1133 199.508 50.9258V50C199.508 49.0781 199.402 48.2617 199.191 47.5508C198.988 46.8398 198.684 46.2422 198.277 45.7578C197.879 45.2734 197.387 44.9062 196.801 44.6562C196.223 44.4062 195.555 44.2812 194.797 44.2812H190.977V41.9375H194.797C195.93 41.9375 196.965 42.1289 197.902 42.5117C198.84 42.8867 199.648 43.4297 200.328 44.1406C201.016 44.8516 201.543 45.7031 201.91 46.6953C202.277 47.6875 202.461 48.7969 202.461 50.0234V50.9258C202.461 52.1523 202.277 53.2617 201.91 54.2539C201.543 55.2461 201.016 56.0977 200.328 56.8086C199.641 57.5117 198.82 58.0547 197.867 58.4375C196.922 58.8125 195.863 59 194.691 59ZM192.676 41.9375V59H189.734V41.9375H192.676ZM212.281 56.457V50.4102C212.281 49.957 212.199 49.5664 212.035 49.2383C211.871 48.9102 211.621 48.6562 211.285 48.4766C210.957 48.2969 210.543 48.207 210.043 48.207C209.582 48.207 209.184 48.2852 208.848 48.4414C208.512 48.5977 208.25 48.8086 208.062 49.0742C207.875 49.3398 207.781 49.6406 207.781 49.9766H204.969C204.969 49.4766 205.09 48.9922 205.332 48.5234C205.574 48.0547 205.926 47.6367 206.387 47.2695C206.848 46.9023 207.398 46.6133 208.039 46.4023C208.68 46.1914 209.398 46.0859 210.195 46.0859C211.148 46.0859 211.992 46.2461 212.727 46.5664C213.469 46.8867 214.051 47.3711 214.473 48.0195C214.902 48.6602 215.117 49.4648 215.117 50.4336V56.0703C215.117 56.6484 215.156 57.168 215.234 57.6289C215.32 58.082 215.441 58.4766 215.598 58.8125V59H212.703C212.57 58.6953 212.465 58.3086 212.387 57.8398C212.316 57.3633 212.281 56.9023 212.281 56.457ZM212.691 51.2891L212.715 53.0352H210.688C210.164 53.0352 209.703 53.0859 209.305 53.1875C208.906 53.2812 208.574 53.4219 208.309 53.6094C208.043 53.7969 207.844 54.0234 207.711 54.2891C207.578 54.5547 207.512 54.8555 207.512 55.1914C207.512 55.5273 207.59 55.8359 207.746 56.1172C207.902 56.3906 208.129 56.6055 208.426 56.7617C208.73 56.918 209.098 56.9961 209.527 56.9961C210.105 56.9961 210.609 56.8789 211.039 56.6445C211.477 56.4023 211.82 56.1094 212.07 55.7656C212.32 55.4141 212.453 55.082 212.469 54.7695L213.383 56.0234C213.289 56.3438 213.129 56.6875 212.902 57.0547C212.676 57.4219 212.379 57.7734 212.012 58.1094C211.652 58.4375 211.219 58.707 210.711 58.918C210.211 59.1289 209.633 59.2344 208.977 59.2344C208.148 59.2344 207.41 59.0703 206.762 58.7422C206.113 58.4062 205.605 57.957 205.238 57.3945C204.871 56.8242 204.688 56.1797 204.688 55.4609C204.688 54.7891 204.812 54.1953 205.062 53.6797C205.32 53.1562 205.695 52.7188 206.188 52.3672C206.688 52.0156 207.297 51.75 208.016 51.5703C208.734 51.3828 209.555 51.2891 210.477 51.2891H212.691ZM225.184 55.5664C225.184 55.2852 225.113 55.0312 224.973 54.8047C224.832 54.5703 224.562 54.3594 224.164 54.1719C223.773 53.9844 223.195 53.8125 222.43 53.6562C221.758 53.5078 221.141 53.332 220.578 53.1289C220.023 52.918 219.547 52.6641 219.148 52.3672C218.75 52.0703 218.441 51.7188 218.223 51.3125C218.004 50.9062 217.895 50.4375 217.895 49.9062C217.895 49.3906 218.008 48.9023 218.234 48.4414C218.461 47.9805 218.785 47.5742 219.207 47.2227C219.629 46.8711 220.141 46.5938 220.742 46.3906C221.352 46.1875 222.031 46.0859 222.781 46.0859C223.844 46.0859 224.754 46.2656 225.512 46.625C226.277 46.9766 226.863 47.457 227.27 48.0664C227.676 48.668 227.879 49.3477 227.879 50.1055H225.055C225.055 49.7695 224.969 49.457 224.797 49.168C224.633 48.8711 224.383 48.6328 224.047 48.4531C223.711 48.2656 223.289 48.1719 222.781 48.1719C222.297 48.1719 221.895 48.25 221.574 48.4062C221.262 48.5547 221.027 48.75 220.871 48.9922C220.723 49.2344 220.648 49.5 220.648 49.7891C220.648 50 220.688 50.1914 220.766 50.3633C220.852 50.5273 220.992 50.6797 221.188 50.8203C221.383 50.9531 221.648 51.0781 221.984 51.1953C222.328 51.3125 222.758 51.4258 223.273 51.5352C224.242 51.7383 225.074 52 225.77 52.3203C226.473 52.6328 227.012 53.0391 227.387 53.5391C227.762 54.0312 227.949 54.6562 227.949 55.4141C227.949 55.9766 227.828 56.4922 227.586 56.9609C227.352 57.4219 227.008 57.8242 226.555 58.168C226.102 58.5039 225.559 58.7656 224.926 58.9531C224.301 59.1406 223.598 59.2344 222.816 59.2344C221.668 59.2344 220.695 59.0312 219.898 58.625C219.102 58.2109 218.496 57.6836 218.082 57.043C217.676 56.3945 217.473 55.7227 217.473 55.0273H220.203C220.234 55.5508 220.379 55.9688 220.637 56.2812C220.902 56.5859 221.23 56.8086 221.621 56.9492C222.02 57.082 222.43 57.1484 222.852 57.1484C223.359 57.1484 223.785 57.082 224.129 56.9492C224.473 56.8086 224.734 56.6211 224.914 56.3867C225.094 56.1445 225.184 55.8711 225.184 55.5664ZM233.211 41V59H230.398V41H233.211ZM232.719 52.1914L231.805 52.1797C231.812 51.3047 231.934 50.4961 232.168 49.7539C232.41 49.0117 232.746 48.3672 233.176 47.8203C233.613 47.2656 234.137 46.8398 234.746 46.543C235.355 46.2383 236.031 46.0859 236.773 46.0859C237.398 46.0859 237.961 46.1719 238.461 46.3438C238.969 46.5156 239.406 46.793 239.773 47.1758C240.141 47.5508 240.418 48.043 240.605 48.6523C240.801 49.2539 240.898 49.9883 240.898 50.8555V59H238.062V50.832C238.062 50.2227 237.973 49.7383 237.793 49.3789C237.621 49.0195 237.367 48.7617 237.031 48.6055C236.695 48.4414 236.285 48.3594 235.801 48.3594C235.293 48.3594 234.844 48.4609 234.453 48.6641C234.07 48.8672 233.75 49.1445 233.492 49.4961C233.234 49.8477 233.039 50.2539 232.906 50.7148C232.781 51.1758 232.719 51.668 232.719 52.1914ZM243.77 41H246.594V56.293L246.324 59H243.77V41ZM254.867 52.543V52.7891C254.867 53.7266 254.762 54.5898 254.551 55.3789C254.348 56.1602 254.035 56.8398 253.613 57.418C253.199 57.9961 252.684 58.4453 252.066 58.7656C251.457 59.0781 250.75 59.2344 249.945 59.2344C249.156 59.2344 248.469 59.0859 247.883 58.7891C247.297 58.4922 246.805 58.0703 246.406 57.5234C246.016 56.9766 245.699 56.3242 245.457 55.5664C245.215 54.8086 245.043 53.9727 244.941 53.0586V52.2734C245.043 51.3516 245.215 50.5156 245.457 49.7656C245.699 49.0078 246.016 48.3555 246.406 47.8086C246.805 47.2539 247.293 46.8281 247.871 46.5312C248.457 46.2344 249.141 46.0859 249.922 46.0859C250.734 46.0859 251.449 46.2422 252.066 46.5547C252.691 46.8672 253.211 47.3125 253.625 47.8906C254.039 48.4609 254.348 49.1406 254.551 49.9297C254.762 50.7188 254.867 51.5898 254.867 52.543ZM252.043 52.7891V52.543C252.043 51.9727 251.996 51.4375 251.902 50.9375C251.809 50.4297 251.652 49.9844 251.434 49.6016C251.223 49.2188 250.934 48.918 250.566 48.6992C250.207 48.4727 249.758 48.3594 249.219 48.3594C248.719 48.3594 248.289 48.4453 247.93 48.6172C247.57 48.7891 247.27 49.0234 247.027 49.3203C246.785 49.6172 246.594 49.9609 246.453 50.3516C246.32 50.7422 246.23 51.1641 246.184 51.6172V53.7383C246.254 54.3242 246.402 54.8633 246.629 55.3555C246.863 55.8398 247.191 56.2305 247.613 56.5273C248.035 56.8164 248.578 56.9609 249.242 56.9609C249.766 56.9609 250.207 56.8555 250.566 56.6445C250.926 56.4336 251.211 56.1406 251.422 55.7656C251.641 55.3828 251.797 54.9375 251.891 54.4297C251.992 53.9219 252.043 53.375 252.043 52.7891ZM256.719 52.8008V52.5312C256.719 51.6172 256.852 50.7695 257.117 49.9883C257.383 49.1992 257.766 48.5156 258.266 47.9375C258.773 47.3516 259.391 46.8984 260.117 46.5781C260.852 46.25 261.68 46.0859 262.602 46.0859C263.531 46.0859 264.359 46.25 265.086 46.5781C265.82 46.8984 266.441 47.3516 266.949 47.9375C267.457 48.5156 267.844 49.1992 268.109 49.9883C268.375 50.7695 268.508 51.6172 268.508 52.5312V52.8008C268.508 53.7148 268.375 54.5625 268.109 55.3438C267.844 56.125 267.457 56.8086 266.949 57.3945C266.441 57.9727 265.824 58.4258 265.098 58.7539C264.371 59.0742 263.547 59.2344 262.625 59.2344C261.695 59.2344 260.863 59.0742 260.129 58.7539C259.402 58.4258 258.785 57.9727 258.277 57.3945C257.77 56.8086 257.383 56.125 257.117 55.3438C256.852 54.5625 256.719 53.7148 256.719 52.8008ZM259.543 52.5312V52.8008C259.543 53.3711 259.602 53.9102 259.719 54.418C259.836 54.9258 260.02 55.3711 260.27 55.7539C260.52 56.1367 260.84 56.4375 261.23 56.6562C261.621 56.875 262.086 56.9844 262.625 56.9844C263.148 56.9844 263.602 56.875 263.984 56.6562C264.375 56.4375 264.695 56.1367 264.945 55.7539C265.195 55.3711 265.379 54.9258 265.496 54.418C265.621 53.9102 265.684 53.3711 265.684 52.8008V52.5312C265.684 51.9688 265.621 51.4375 265.496 50.9375C265.379 50.4297 265.191 49.9805 264.934 49.5898C264.684 49.1992 264.363 48.8945 263.973 48.6758C263.59 48.4492 263.133 48.3359 262.602 48.3359C262.07 48.3359 261.609 48.4492 261.219 48.6758C260.836 48.8945 260.52 49.1992 260.27 49.5898C260.02 49.9805 259.836 50.4297 259.719 50.9375C259.602 51.4375 259.543 51.9688 259.543 52.5312ZM278.023 56.457V50.4102C278.023 49.957 277.941 49.5664 277.777 49.2383C277.613 48.9102 277.363 48.6562 277.027 48.4766C276.699 48.2969 276.285 48.207 275.785 48.207C275.324 48.207 274.926 48.2852 274.59 48.4414C274.254 48.5977 273.992 48.8086 273.805 49.0742C273.617 49.3398 273.523 49.6406 273.523 49.9766H270.711C270.711 49.4766 270.832 48.9922 271.074 48.5234C271.316 48.0547 271.668 47.6367 272.129 47.2695C272.59 46.9023 273.141 46.6133 273.781 46.4023C274.422 46.1914 275.141 46.0859 275.938 46.0859C276.891 46.0859 277.734 46.2461 278.469 46.5664C279.211 46.8867 279.793 47.3711 280.215 48.0195C280.645 48.6602 280.859 49.4648 280.859 50.4336V56.0703C280.859 56.6484 280.898 57.168 280.977 57.6289C281.062 58.082 281.184 58.4766 281.34 58.8125V59H278.445C278.312 58.6953 278.207 58.3086 278.129 57.8398C278.059 57.3633 278.023 56.9023 278.023 56.457ZM278.434 51.2891L278.457 53.0352H276.43C275.906 53.0352 275.445 53.0859 275.047 53.1875C274.648 53.2812 274.316 53.4219 274.051 53.6094C273.785 53.7969 273.586 54.0234 273.453 54.2891C273.32 54.5547 273.254 54.8555 273.254 55.1914C273.254 55.5273 273.332 55.8359 273.488 56.1172C273.645 56.3906 273.871 56.6055 274.168 56.7617C274.473 56.918 274.84 56.9961 275.27 56.9961C275.848 56.9961 276.352 56.8789 276.781 56.6445C277.219 56.4023 277.562 56.1094 277.812 55.7656C278.062 55.4141 278.195 55.082 278.211 54.7695L279.125 56.0234C279.031 56.3438 278.871 56.6875 278.645 57.0547C278.418 57.4219 278.121 57.7734 277.754 58.1094C277.395 58.4375 276.961 58.707 276.453 58.918C275.953 59.1289 275.375 59.2344 274.719 59.2344C273.891 59.2344 273.152 59.0703 272.504 58.7422C271.855 58.4062 271.348 57.957 270.98 57.3945C270.613 56.8242 270.43 56.1797 270.43 55.4609C270.43 54.7891 270.555 54.1953 270.805 53.6797C271.062 53.1562 271.438 52.7188 271.93 52.3672C272.43 52.0156 273.039 51.75 273.758 51.5703C274.477 51.3828 275.297 51.2891 276.219 51.2891H278.434ZM286.648 48.7344V59H283.824V46.3203H286.52L286.648 48.7344ZM290.527 46.2383L290.504 48.8633C290.332 48.832 290.145 48.8086 289.941 48.793C289.746 48.7773 289.551 48.7695 289.355 48.7695C288.871 48.7695 288.445 48.8398 288.078 48.9805C287.711 49.1133 287.402 49.3086 287.152 49.5664C286.91 49.8164 286.723 50.1211 286.59 50.4805C286.457 50.8398 286.379 51.2422 286.355 51.6875L285.711 51.7344C285.711 50.9375 285.789 50.1992 285.945 49.5195C286.102 48.8398 286.336 48.2422 286.648 47.7266C286.969 47.2109 287.367 46.8086 287.844 46.5195C288.328 46.2305 288.887 46.0859 289.52 46.0859C289.691 46.0859 289.875 46.1016 290.07 46.1328C290.273 46.1641 290.426 46.1992 290.527 46.2383ZM299.797 56.375V41H302.633V59H300.066L299.797 56.375ZM291.547 52.8008V52.5547C291.547 51.5938 291.66 50.7188 291.887 49.9297C292.113 49.1328 292.441 48.4492 292.871 47.8789C293.301 47.3008 293.824 46.8594 294.441 46.5547C295.059 46.2422 295.754 46.0859 296.527 46.0859C297.293 46.0859 297.965 46.2344 298.543 46.5312C299.121 46.8281 299.613 47.2539 300.02 47.8086C300.426 48.3555 300.75 49.0117 300.992 49.7773C301.234 50.5352 301.406 51.3789 301.508 52.3086V53.0938C301.406 54 301.234 54.8281 300.992 55.5781C300.75 56.3281 300.426 56.9766 300.02 57.5234C299.613 58.0703 299.117 58.4922 298.531 58.7891C297.953 59.0859 297.277 59.2344 296.504 59.2344C295.738 59.2344 295.047 59.0742 294.43 58.7539C293.82 58.4336 293.301 57.9844 292.871 57.4062C292.441 56.8281 292.113 56.1484 291.887 55.3672C291.66 54.5781 291.547 53.7227 291.547 52.8008ZM294.371 52.5547V52.8008C294.371 53.3789 294.422 53.918 294.523 54.418C294.633 54.918 294.801 55.3594 295.027 55.7422C295.254 56.1172 295.547 56.4141 295.906 56.6328C296.273 56.8438 296.711 56.9492 297.219 56.9492C297.859 56.9492 298.387 56.8086 298.801 56.5273C299.215 56.2461 299.539 55.8672 299.773 55.3906C300.016 54.9062 300.18 54.3672 300.266 53.7734V51.6523C300.219 51.1914 300.121 50.7617 299.973 50.3633C299.832 49.9648 299.641 49.6172 299.398 49.3203C299.156 49.0156 298.855 48.7812 298.496 48.6172C298.145 48.4453 297.727 48.3594 297.242 48.3594C296.727 48.3594 296.289 48.4688 295.93 48.6875C295.57 48.9062 295.273 49.207 295.039 49.5898C294.812 49.9727 294.645 50.418 294.535 50.9258C294.426 51.4336 294.371 51.9766 294.371 52.5547Z" fill="#030712"/>
<path d="M142 58.5V45C142 44.525 142.107 44.075 142.32 43.65C142.533 43.225 142.826 42.875 143.2 42.6L152.2 35.85C152.725 35.45 153.325 35.25 154 35.25C154.675 35.25 155.275 35.45 155.8 35.85L164.8 42.6C165.175 42.875 165.469 43.225 165.682 43.65C165.895 44.075 166.001 44.525 166 45V58.5C166 59.325 165.706 60.0315 165.118 60.6195C164.53 61.2075 163.824 61.501 163 61.5H158.5C158.075 61.5 157.719 61.356 157.431 61.068C157.143 60.78 156.999 60.424 157 60V52.5C157 52.075 156.856 51.7185 156.568 51.4305C156.28 51.1425 155.924 50.999 155.5 51H152.5C152.075 51 151.719 51.144 151.431 51.432C151.143 51.72 150.999 52.076 151 52.5V60C151 60.425 150.856 60.7815 150.568 61.0695C150.28 61.3575 149.924 61.501 149.5 61.5H145C144.175 61.5 143.469 61.206 142.881 60.618C142.293 60.03 141.999 59.324 142 58.5Z" fill="#030712"/>
<rect x="16" y="12" width="72" height="72" rx="24" fill="#9CA3AF"/>
<path d="M52.36 57.96C53.68 57.96 54.8104 57.6504 55.7512 57.0312C56.692 56.412 57.1616 55.4416 57.16 54.12C57.16 52.96 56.6696 52.02 55.6888 51.3C54.708 50.58 52.9584 49.76 50.44 48.84C48.08 48 46.3504 47 45.2512 45.84C44.152 44.68 43.6016 43.16 43.6 41.28C43.6 39.64 44.1704 38.1504 45.3112 36.8112C46.452 35.472 48.0016 34.6016 49.96 34.2V33.3C49.96 32.74 50.1704 32.2496 50.5912 31.8288C51.012 31.408 51.5008 31.1984 52.0576 31.2C52.6176 31.2 53.108 31.4104 53.5288 31.8312C53.9496 32.252 54.1592 32.7416 54.1576 33.3V34.2C55.3176 34.28 56.388 34.6704 57.3688 35.3712C58.3496 36.072 59.1392 36.9216 59.7376 37.92C60.0176 38.36 60.0376 38.8304 59.7976 39.3312C59.5576 39.832 59.1576 40.1816 58.5976 40.38C58.0776 40.58 57.5576 40.6 57.0376 40.44C56.5176 40.28 56.0976 39.98 55.7776 39.54C55.3776 39.06 54.8776 38.6704 54.2776 38.3712C53.6776 38.072 52.9576 37.9216 52.1176 37.92C50.7176 37.92 49.6472 38.22 48.9064 38.82C48.1656 39.42 47.7968 40.24 47.8 41.28C47.8 42.32 48.26 43.14 49.18 43.74C50.1 44.34 51.76 45.04 54.16 45.84C57.04 46.88 58.96 48.1 59.92 49.5C60.88 50.9 61.36 52.44 61.36 54.12C61.36 55.28 61.16 56.3 60.76 57.18C60.36 58.06 59.8296 58.8104 59.1688 59.4312C58.5096 60.0504 57.74 60.5496 56.86 60.9288C55.98 61.308 55.04 61.5984 54.04 61.8V62.7C54.04 63.26 53.8304 63.7504 53.4112 64.1712C52.992 64.592 52.5016 64.8016 51.94 64.8C51.38 64.8 50.8904 64.5896 50.4712 64.1688C50.052 63.748 49.8416 63.2584 49.84 62.7V61.68C48.32 61.36 47.02 60.76 45.94 59.88C44.86 59 44 57.88 43.36 56.52C43.12 55.96 43.1304 55.42 43.3912 54.9C43.652 54.38 44.0616 54.02 44.62 53.82C45.14 53.62 45.66 53.6296 46.18 53.8488C46.7 54.068 47.1 54.4184 47.38 54.9C47.94 55.94 48.6504 56.7096 49.5112 57.2088C50.372 57.708 51.3216 57.9584 52.36 57.96ZM52 74.4C47.52 74.4 43.4 73.38 39.64 71.34C35.88 69.3 32.8 66.58 30.4 63.18V67.2C30.4 67.88 30.1696 68.4504 29.7088 68.9112C29.248 69.372 28.6784 69.6016 28 69.6C27.32 69.6 26.7496 69.3696 26.2888 68.9088C25.828 68.448 25.5984 67.8784 25.6 67.2V57.6C25.6 56.92 25.8304 56.3496 26.2912 55.8888C26.752 55.428 27.3216 55.1984 28 55.2H37.6C38.28 55.2 38.8504 55.4304 39.3112 55.8912C39.772 56.352 40.0016 56.9216 40 57.6C40 58.28 39.7696 58.8504 39.3088 59.3112C38.848 59.772 38.2784 60.0016 37.6 60H34.06C35.98 62.88 38.5104 65.2 41.6512 66.96C44.792 68.72 48.2416 69.6 52 69.6C57.64 69.6 62.4904 67.72 66.5512 63.96C70.612 60.2 72.9216 55.58 73.48 50.1C73.56 49.46 73.84 48.9496 74.32 48.5688C74.8 48.188 75.36 47.9984 76 48C76.68 48 77.26 48.2104 77.74 48.6312C78.22 49.052 78.42 49.5616 78.34 50.16C78.06 53.56 77.18 56.7296 75.7 59.6688C74.22 62.608 72.3 65.168 69.94 67.3488C67.58 69.5296 64.8696 71.2496 61.8088 72.5088C58.748 73.768 55.4784 74.3984 52 74.4ZM52 26.4C46.36 26.4 41.5096 28.28 37.4488 32.04C33.388 35.8 31.0784 40.42 30.52 45.9C30.44 46.54 30.16 47.0504 29.68 47.4312C29.2 47.812 28.64 48.0016 28 48C27.32 48 26.74 47.7896 26.26 47.3688C25.78 46.948 25.58 46.4384 25.66 45.84C25.94 42.44 26.82 39.2704 28.3 36.3312C29.78 33.392 31.7 30.832 34.06 28.6512C36.42 26.4704 39.1304 24.7504 42.1912 23.4912C45.252 22.232 48.5216 21.6016 52 21.6C56.48 21.6 60.6 22.62 64.36 24.66C68.12 26.7 71.2 29.42 73.6 32.82V28.8C73.6 28.12 73.8304 27.5504 74.2912 27.0912C74.752 26.632 75.3216 26.4016 76 26.4C76.68 26.4 77.2504 26.6304 77.7112 27.0912C78.172 27.552 78.4016 28.1216 78.4 28.8V38.4C78.4 39.08 78.1696 39.6504 77.7088 40.1112C77.248 40.572 76.6784 40.8016 76 40.8H66.4C65.72 40.8 65.1496 40.5696 64.6888 40.1088C64.228 39.648 63.9984 39.0784 64 38.4C64 37.72 64.2304 37.1496 64.6912 36.6888C65.152 36.228 65.7216 35.9984 66.4 36H69.94C68.02 33.12 65.4896 30.8 62.3488 29.04C59.208 27.28 55.7584 26.4 52 26.4Z" fill="#030712"/>
</g>
<defs>
<clipPath id="clip0_1_2">
<rect width="1440" height="1024" fill="white"/>
</clipPath>
</defs>
</svg>
